<svg xmlns="http://www.w3.org/2000/svg" width="259.421" height="87.905" viewBox="0 0 259.421 87.905"><g transform="translate(-28.3 -36.8)"><g transform="translate(110.715 36.8)"><path d="M150.538,38.689H147.3v2.252h3.026V42.56H147.3v2.886h-1.9V37h5.279Z" transform="translate(-145.4 -36.859)" fill="#009d8e"></path><path d="M160.134,45.516,159.36,43.4H156.4l-.774,2.041H153.8L156.967,37h1.9l3.238,8.375Zm-2.041-5.56a3.632,3.632,0,0,1-.141-.774h-.07a2.53,2.53,0,0,1-.141.774L156.967,42h1.9Z" transform="translate(-147.888 -36.859)" fill="#009d8e"></path><path d="M171.075,45.527c-2.463,0-4.575-1.478-4.575-4.223a4.239,4.239,0,0,1,4.5-4.5,6.609,6.609,0,0,1,2.886.563l-.563,1.76a4.643,4.643,0,0,0-2.252-.563c-1.337,0-2.463.633-2.463,2.745a2.293,2.293,0,0,0,2.6,2.463,4.677,4.677,0,0,0,2.252-.633l.422,1.76A5.934,5.934,0,0,1,171.075,45.527Z" transform="translate(-151.65 -36.8)" fill="#009d8e"></path><path d="M182.789,45.586c-2.393,0-3.589-.985-3.589-3.026V37.07h1.9v5.067c0,1.126.282,1.76,1.689,1.76,1.267,0,1.689-.563,1.689-1.83V37h1.689v5.49C186.238,44.249,185.042,45.586,182.789,45.586Z" transform="translate(-155.411 -36.859)" fill="#009d8e"></path><path d="M197.419,45.546H192V37.1h1.9v6.757h3.589Z" transform="translate(-159.203 -36.889)" fill="#009d8e"></path><path d="M205.108,45.586c-.633,0-2.463-.07-2.463-.07H201.8V37.07h.774s1.689-.07,2.393-.07c2.674,0,4.575,1.408,4.575,4.152A4.1,4.1,0,0,1,205.108,45.586Zm-.282-7.038c-.422,0-.774.07-1.126.07V43.9c.282,0,.845.07,1.2.07a2.429,2.429,0,0,0,2.534-2.745A2.358,2.358,0,0,0,204.826,38.548Z" transform="translate(-162.106 -36.859)" fill="#009d8e"></path><path d="M219.934,45.516,219.16,43.4H216.2l-.774,2.041H213.6L216.767,37h1.9l3.237,8.375Zm-2.041-5.56a3.63,3.63,0,0,1-.141-.774h-.07a2.53,2.53,0,0,1-.141.774L216.767,42h1.9Z" transform="translate(-165.601 -36.859)" fill="#009d8e"></path><path d="M230.508,45.586c-.633,0-2.463-.07-2.463-.07H227.2V37.07h.774s1.689-.07,2.393-.07c2.674,0,4.575,1.408,4.575,4.152A4.1,4.1,0,0,1,230.508,45.586Zm-.352-7.038c-.422,0-.774.07-1.126.07V43.9c.281,0,.845.07,1.2.07a2.429,2.429,0,0,0,2.534-2.745A2.331,2.331,0,0,0,230.156,38.548Z" transform="translate(-169.629 -36.859)" fill="#009d8e"></path><path d="M245.819,45.546H240.4V37.1h5.208l-.141,1.619H242.23v1.76h2.956V42.1H242.23v1.76h3.66Z" transform="translate(-173.539 -36.889)" fill="#009d8e"></path></g><g transform="translate(110.082 75.439)"><path d="M147.034,100.8c-1.478,0-2.534-.633-2.534-2.252V93.9h.493v4.645c0,1.056.774,1.689,2.041,1.689a1.817,1.817,0,0,0,2.041-1.689V93.9h.493v4.645A2.265,2.265,0,0,1,147.034,100.8Z" transform="translate(-144.5 -92.352)"></path><path d="M147.034,101c-1.763,0-2.734-.871-2.734-2.452V93.7h.893v4.845c0,.932.688,1.489,1.841,1.489,1.084,0,1.841-.612,1.841-1.489V93.7h.893v4.845A2.465,2.465,0,0,1,147.034,101ZM144.7,94.1v4.445c0,1.362.785,2.052,2.334,2.052a2.067,2.067,0,0,0,2.334-2.052V94.1h-.093v4.445a2.018,2.018,0,0,1-2.241,1.889c-1.382,0-2.241-.724-2.241-1.889V94.1Z" transform="translate(-144.5 -92.352)"></path><path d="M160.445,100.727l-.281-5.49v-.422h-.07a.6.6,0,0,1-.141.422l-2.252,5.419h-.563l-2.182-5.419c-.07-.07-.07-.211-.141-.422h-.07v.422l-.352,5.419H153.9l.422-6.757h.563l2.393,5.842c.07.07.07.282.07.352h0a.538.538,0,0,1,.141-.352l2.393-5.771h.563l.352,6.757Z" transform="translate(-147.284 -92.352)"></path><path d="M161.008,100.927h-.753l-.269-5.249-2.152,5.179H157l-2.086-5.181-.336,5.181h-.893l.447-7.157h.885l2.365,5.773,2.364-5.7h.886Zm-3.735-.47h.295l2.216-5.333.028-.028a.416.416,0,0,0,.082-.281v-.2h.385l-.023-.445h-.24l-2.357,5.685-.028.028a.34.34,0,0,0-.082.21h-.4a.689.689,0,0,0-.021-.22l-.019-.019L154.751,94.1h-.241l-.4,6.356h.092l.339-5.226v-.616h.414l.046.137c.03.089.048.166.063.229a.8.8,0,0,0,.033.119l.025.025Z" transform="translate(-147.284 -92.352)"></path><path d="M170.338,100.757l-.985-2.534h-2.6l-.985,2.534H165.2L167.8,94h.493l2.534,6.757Zm-2.111-5.63a4.476,4.476,0,0,1-.141-.493h0a1.017,1.017,0,0,1-.141.493l-.985,2.6h2.252Z" transform="translate(-150.631 -92.381)"></path><path d="M171.119,100.956H170.2l-.985-2.534h-2.33l-.985,2.534h-.991l2.758-7.156h.768Zm-.644-.4h.067L168.158,94.2h-.217l-2.45,6.357h.135l.985-2.534h2.878ZM169.5,97.93H166.67l1.1-2.894a.825.825,0,0,0,.12-.4l.39-.063a2.421,2.421,0,0,1,.069.263.869.869,0,0,0,.06.2l.008.019Zm-2.252-.4h1.673l-.837-2.211Z" transform="translate(-150.631 -92.381)"></path><path d="M178.4,100.657V93.9h.493v6.757Z" transform="translate(-154.541 -92.352)"></path><path d="M179.093,100.857H178.2V93.7h.893Zm-.493-.4h.093V94.1H178.6Z" transform="translate(-154.541 -92.352)"></path><path d="M186.627,100.8l-4.152-5.7a1.54,1.54,0,0,0-.211-.352h-.07v5.982H181.7V93.97h.493l4.012,5.56a1.539,1.539,0,0,0,.211.352h.07V93.9h.493v6.757Z" transform="translate(-155.519 -92.352)"></path><path d="M186.557,101.041l-4.164-5.716v5.6H181.5V93.77h.795l3.991,5.531V93.7h.893v7.092Zm-.2-.958.343.471.082-.033V94.1h-.093v5.982Zm-4.453.445h.093V94.545h.353l.052.052-.307-.426h-.19Zm.746-5.535,3.4,4.667-.013-.025L182.547,94.8C182.58,94.862,182.613,94.926,182.646,94.992Z" transform="translate(-155.519 -92.352)"></path><path d="M193.03,100.768a3.7,3.7,0,0,1-1.83-.422l.211-.493a2.759,2.759,0,0,0,1.619.422c.915,0,1.619-.493,1.619-1.267,0-1.619-3.237-1.689-3.237-3.449a1.883,1.883,0,0,1,2.111-1.76,4.384,4.384,0,0,1,1.478.211l-.141.563a3.828,3.828,0,0,0-1.408-.282c-.915,0-1.548.493-1.548,1.2,0,1.478,3.308,1.478,3.308,3.519A2.052,2.052,0,0,1,193.03,100.768Z" transform="translate(-158.332 -92.322)"></path><path d="M193.03,100.968a3.906,3.906,0,0,1-1.929-.449l-.155-.088.385-.9.205.164a2.575,2.575,0,0,0,1.494.378c.835,0,1.419-.439,1.419-1.067,0-.674-.711-1.06-1.464-1.468-.831-.452-1.774-.963-1.774-1.98a1.783,1.783,0,0,1,.711-1.46,2.62,2.62,0,0,1,1.6-.5,4.513,4.513,0,0,1,1.552.225l.162.065-.239.955-.213-.085a3.655,3.655,0,0,0-1.333-.267c-.794,0-1.348.41-1.348,1,0,.559.624.886,1.348,1.266.919.482,1.96,1.029,1.96,2.253v.015A2.249,2.249,0,0,1,193.03,100.968Zm-1.573-.714a3.676,3.676,0,0,0,1.573.314A1.856,1.856,0,0,0,195.012,99c0-.977-.89-1.441-1.746-1.891-.768-.4-1.562-.82-1.562-1.62,0-.822.719-1.4,1.748-1.4a3.989,3.989,0,0,1,1.268.217l.042-.168A4.79,4.79,0,0,0,193.523,94c-.921,0-1.911.488-1.911,1.56,0,.779.76,1.192,1.565,1.629.822.447,1.673.908,1.673,1.82,0,.864-.748,1.467-1.819,1.467a3.311,3.311,0,0,1-1.529-.325Z" transform="translate(-158.332 -92.322)"></path><path d="M203.149,94.393h-2.393v6.264h-.493V94.393H197.87l-.07-.493h5.349Z" transform="translate(-160.287 -92.352)"></path><path d="M197.569,93.7h5.779v.893h-2.393v6.264h-.893V94.593H197.7Zm5.38.4h-4.918l.013.093h2.419v6.264h.093V94.193h2.393Z" transform="translate(-160.287 -92.352)"></path><path d="M207.1,100.657V93.9h.493v6.757Z" transform="translate(-163.042 -92.352)"></path><path d="M207.793,100.857H206.9V93.7h.893Zm-.493-.4h.093V94.1H207.3Z" transform="translate(-163.042 -92.352)"></path><path d="M214.849,94.393h-2.393v6.264h-.493V94.393H209.57l-.07-.493h5.349Z" transform="translate(-163.753 -92.352)"></path><path d="M209.269,93.7h5.779v.893h-2.393v6.264h-.893V94.593H209.4Zm5.379.4h-4.918l.013.093h2.419v6.264h.093V94.193h2.393Z" transform="translate(-163.753 -92.352)"></path><path d="M221.434,100.8c-1.478,0-2.534-.633-2.534-2.252V93.9h.493v4.645c0,1.056.774,1.689,2.041,1.689a1.817,1.817,0,0,0,2.041-1.689V93.9h.493v4.645A2.265,2.265,0,0,1,221.434,100.8Z" transform="translate(-166.537 -92.352)"></path><path d="M221.434,101c-1.763,0-2.734-.871-2.734-2.452V93.7h.893v4.845c0,.932.688,1.489,1.841,1.489,1.084,0,1.841-.612,1.841-1.489V93.7h.893v4.845a2.315,2.315,0,0,1-.752,1.776A2.9,2.9,0,0,1,221.434,101ZM219.1,94.1v4.445c0,1.362.785,2.052,2.334,2.052a2.51,2.51,0,0,0,1.714-.573,1.926,1.926,0,0,0,.62-1.479V94.1h-.093v4.445a2.018,2.018,0,0,1-2.241,1.889c-1.382,0-2.241-.724-2.241-1.889V94.1Z" transform="translate(-166.537 -92.352)"></path><path d="M228.8,100.657V93.9h.493v6.757Z" transform="translate(-169.469 -92.352)"></path><path d="M229.493,100.857H228.6V93.7h.893Zm-.493-.4h.093V94.1H229Z" transform="translate(-169.469 -92.352)"></path><path d="M235.119,100.768a3.484,3.484,0,1,1-.07-6.968,6.874,6.874,0,0,1,2.252.352l-.141.493a5.722,5.722,0,0,0-2.111-.352,2.794,2.794,0,0,0-2.886,3.1,2.841,2.841,0,0,0,3.026,2.886,5.83,5.83,0,0,0,2.041-.422l.141.493A6.755,6.755,0,0,1,235.119,100.768Zm-.352,1.971a1.358,1.358,0,0,1-.7-.211l.07-.352a1.656,1.656,0,0,0,.563.141c.352,0,.563-.141.563-.493a.575.575,0,0,0-.633-.563l.07-.352a.953.953,0,0,1,1.056.915A.9.9,0,0,1,234.767,102.738Z" transform="translate(-170.299 -92.322)"></path><path d="M234.767,102.938a1.551,1.551,0,0,1-.815-.245l-.111-.074.141-.705.215.072.128.045a1.038,1.038,0,0,0,.371.086c.335,0,.363-.138.363-.293,0-.268-.234-.363-.433-.363h-.244l.108-.542a3.861,3.861,0,0,1-1.922-.871,3.406,3.406,0,0,1-1.169-2.658,3.561,3.561,0,0,1,3.649-3.789,7.047,7.047,0,0,1,2.331.368l.162.069-.255.894-.216-.108a5.538,5.538,0,0,0-2.022-.331,2.6,2.6,0,0,0-2.686,2.9,2.649,2.649,0,0,0,2.826,2.686,5.67,5.67,0,0,0,1.962-.406l.209-.089.254.888-.173.065a7.124,7.124,0,0,1-1.924.421,1.021,1.021,0,0,1,.435.87A1.106,1.106,0,0,1,234.767,102.938Zm-.306-.448a1.132,1.132,0,0,0,.306.048.71.71,0,0,0,.785-.715.645.645,0,0,0-.462-.645.729.729,0,0,1,.37.645c0,.44-.278.693-.763.693A1.092,1.092,0,0,1,234.461,102.491ZM235.049,94a3.284,3.284,0,1,0,.07,6.568,6.557,6.557,0,0,0,2.008-.348l-.029-.1a6.079,6.079,0,0,1-1.909.356,3.4,3.4,0,0,1-2.224-.779,2.938,2.938,0,0,1-1-2.307,3,3,0,0,1,3.086-3.3,6.8,6.8,0,0,1,1.981.281l.028-.1A7.278,7.278,0,0,0,235.049,94Z" transform="translate(-170.299 -92.322)"></path><path d="M246.167,100.075l-.915-2.534h-2.6l-.985,2.534H241.1l2.6-6.757h.493l2.534,6.757Zm-1.478-7.39c-.563,0-1.267-.7-1.548-.7-.211,0-.352.211-.563.7l-.352-.141c.281-.7.563-.845.915-.845s1.126.7,1.478.7c.211,0,.352-.141.563-.7l.352.141C245.323,92.474,245.041,92.685,244.689,92.685Zm-.633,1.76a4.515,4.515,0,0,1-.141-.493h0a1.018,1.018,0,0,1-.141.493l-.985,2.6h2.252Z" transform="translate(-173.113 -91.7)"></path><path d="M247.019,100.275h-.992l-.915-2.534h-2.327l-.985,2.534h-.991l2.758-7.157h.769Zm-.711-.4h.134l-2.384-6.356h-.217l-2.45,6.356h.135l.985-2.534h2.881Zm-.977-2.626H242.5l1.1-2.893a.825.825,0,0,0,.12-.4l.39-.063a2.423,2.423,0,0,1,.07.264.871.871,0,0,0,.06.2l.008.019Zm-2.252-.4h1.673l-.837-2.211Zm-.394-3.905-.719-.288.074-.186c.276-.689.594-.97,1.1-.97a1.966,1.966,0,0,1,.845.382,2.161,2.161,0,0,0,.633.321c.06,0,.161,0,.376-.574l.072-.191.717.287-.06.179c-.14.421-.4.981-1.034.981a2.342,2.342,0,0,1-1.129-.473,1.876,1.876,0,0,0-.421-.231c-.113,0-.255.295-.378.583Z" transform="translate(-173.113 -91.7)"></path><path d="M253.508,100.768A3.257,3.257,0,0,1,250.2,97.46a3.476,3.476,0,0,1,3.519-3.66,3.276,3.276,0,0,1,3.308,3.378A3.416,3.416,0,0,1,253.508,100.768Zm.141-6.475a2.822,2.822,0,0,0-2.956,3.026,2.7,2.7,0,0,0,2.815,2.956,2.864,2.864,0,0,0,2.956-3.026A2.7,2.7,0,0,0,253.649,94.293Z" transform="translate(-175.808 -92.322)"></path><path d="M253.508,100.968a3.6,3.6,0,0,1-2.423-.942A3.451,3.451,0,0,1,250,97.46a3.83,3.83,0,0,1,1.135-2.845,3.7,3.7,0,0,1,2.584-1.015,3.5,3.5,0,0,1,2.453.98,3.574,3.574,0,0,1,1.055,2.6,3.615,3.615,0,0,1-3.719,3.789ZM253.719,94a3.28,3.28,0,0,0-3.319,3.46,3.044,3.044,0,0,0,3.108,3.108,3.213,3.213,0,0,0,3.319-3.389A3.075,3.075,0,0,0,253.719,94Zm-.211,6.475a2.894,2.894,0,0,1-3.015-3.156,3.023,3.023,0,0,1,3.156-3.226,2.894,2.894,0,0,1,3.015,3.156,3.223,3.223,0,0,1-.9,2.341A3.147,3.147,0,0,1,253.508,100.475Zm.141-5.982a2.619,2.619,0,0,0-2.756,2.826,2.494,2.494,0,0,0,2.615,2.756,2.671,2.671,0,0,0,2.756-2.826A2.493,2.493,0,0,0,253.649,94.493Z" transform="translate(-175.808 -92.322)"></path><path d="M269.049,94.422h-2.956v2.886h2.745V97.8h-2.745v2.956H265.6V94h3.589Z" transform="translate(-180.37 -92.381)"></path><path d="M265.4,93.8h4.067l-.274.822h-2.9v2.486h2.745V98h-2.745v2.956H265.4Zm3.512.4H265.8v6.356h.093V97.6h2.745v-.093h-2.745V94.222H268.9Z" transform="translate(-180.37 -92.381)"></path><path d="M276.341,100.657H272.4V93.9h3.66l-.07.493h-3.1v2.534h2.745v.493h-2.745v2.815h3.449Z" transform="translate(-182.384 -92.352)"></path><path d="M276.541,100.857H272.2V93.7h4.09l-.127.893h-3.07v2.134h2.745v.893h-2.745v2.415h3.449Zm-3.941-.4h3.541v-.022h-3.449V97.219h2.745v-.093h-2.745V94.193h3.123l.013-.093H272.6Z" transform="translate(-182.384 -92.352)"></path><path d="M283.56,100.657H279.9V93.9h.493v6.264h3.238Z" transform="translate(-184.605 -92.352)"></path><path d="M283.733,100.857H279.7V93.7h.893v6.264h3.268Zm-3.633-.4h3.286l.013-.093h-3.207V94.1H280.1Z" transform="translate(-184.605 -92.352)"></path><path d="M289.534,100.8c-1.478,0-2.534-.633-2.534-2.252V93.9h.493v4.645c0,1.056.774,1.689,2.041,1.689a1.817,1.817,0,0,0,2.041-1.689V93.9h.493v4.645A2.265,2.265,0,0,1,289.534,100.8Z" transform="translate(-186.708 -92.352)"></path><path d="M289.534,101c-1.763,0-2.734-.871-2.734-2.452V93.7h.893v4.845c0,.932.688,1.489,1.841,1.489,1.084,0,1.841-.612,1.841-1.489V93.7h.893v4.845A2.465,2.465,0,0,1,289.534,101ZM287.2,94.1v4.445c0,1.362.785,2.052,2.334,2.052a2.067,2.067,0,0,0,2.334-2.052V94.1h-.093v4.445a2.018,2.018,0,0,1-2.241,1.889c-1.382,0-2.241-.724-2.241-1.889V94.1Z" transform="translate(-186.708 -92.352)"></path><path d="M302.945,100.727l-.282-5.49v-.422h-.07a.6.6,0,0,1-.141.422l-2.252,5.419h-.563l-2.182-5.419c-.07-.07-.07-.211-.141-.422h-.07v.422l-.352,5.419H296.4l.422-6.757h.563l2.393,5.842c.07.07.07.282.07.352h0a.538.538,0,0,1,.141-.352l2.393-5.771h.563l.352,6.757Z" transform="translate(-189.492 -92.352)"></path><path d="M303.508,100.927h-.753l-.269-5.249-2.152,5.179H299.5l-2.086-5.181-.336,5.181h-.893l.447-7.157h.885l2.365,5.773,2.364-5.7h.886Zm-3.735-.47h.294l2.216-5.333.028-.028a.416.416,0,0,0,.082-.281v-.2h.385l-.023-.445h-.24l-2.357,5.685-.028.028a.34.34,0,0,0-.082.21h-.4a.689.689,0,0,0-.021-.22l-.019-.019L297.251,94.1h-.241l-.4,6.356h.092l.339-5.226v-.616h.415l.046.137c.03.089.048.166.063.228a.8.8,0,0,0,.033.119l.025.025Z" transform="translate(-189.492 -92.352)"></path><path d="M312.838,100.757l-.985-2.534h-2.6l-.985,2.534H307.7L310.3,94h.493l2.534,6.757Zm-2.111-5.63a4.506,4.506,0,0,1-.141-.493h0a1.017,1.017,0,0,1-.141.493l-.985,2.6h2.252Z" transform="translate(-192.839 -92.381)"></path><path d="M313.619,100.956H312.7l-.985-2.534h-2.33l-.985,2.534h-.991l2.758-7.156h.769Zm-.645-.4h.067L310.658,94.2h-.217l-2.45,6.357h.135l.985-2.534h2.878ZM312,97.93H309.17l1.1-2.894a.825.825,0,0,0,.12-.4l.39-.063a2.426,2.426,0,0,1,.07.264.87.87,0,0,0,.06.2l.008.019Zm-2.252-.4h1.673l-.837-2.211Z" transform="translate(-192.839 -92.381)"></path></g><g transform="translate(109.941 52.354)"><path d="M150.7,75.157c-3.378,0-6.4-2.111-6.4-5.982a6.079,6.079,0,0,1,6.334-6.475,12.078,12.078,0,0,1,4.082.7l-.282,3.449-.915.141-.211-2.6a6.592,6.592,0,0,0-2.6-.493c-2.463,0-4.434,1.619-4.434,5.349a4.511,4.511,0,0,0,4.575,4.856,7.61,7.61,0,0,0,2.463-.493l.422-2.745.985.07v3.519A12.3,12.3,0,0,1,150.7,75.157Z" transform="translate(-144.3 -60.026)"></path><path d="M162.8,75.005l.07-.915,1.689-.211V64.026l-1.76-.211.07-.915h5.208l-.07.915-1.689.211v9.853l1.689.211.07.915Z" transform="translate(-149.78 -60.085)"></path><path d="M180.079,68.12h-3.589v4.645h4.434l.422-2.323.915.141-.07,3.378c-.352,0-1.478-.07-2.041-.07H172.97l.07-.915,1.619-.211V62.912L172.9,62.7l.07-.915h8.657l-.211,2.886-.915.141-.211-1.971h-3.8v4.223h3.589Zm1.126-.493-2.041-6.545-1.548-1.267-1.689,1.267-1.056-.07,2.182-2.111h1.126l2.041,2.111Z" transform="translate(-152.771 -58.9)"></path><path d="M202.45,63.845l-1.267.211V75.035l-1.126.211c-1.971-2.815-5.7-7.742-7.742-10.135l.07,8.868,2.252.211.07.915H189.5l.07-.915,1.689-.211V64.126l-1.76-.211.07-.915h3.238c2.252,2.674,5.49,6.827,7.32,9.431l-.07-8.3-2.323-.211L197.8,63h4.715Z" transform="translate(-157.688 -60.114)"></path><path d="M217.3,75.157c-3.378,0-6.4-2.111-6.4-5.982a6.079,6.079,0,0,1,6.334-6.475,12.078,12.078,0,0,1,4.082.7l-.282,3.449-.915.141-.211-2.6a6.591,6.591,0,0,0-2.6-.493c-2.463,0-4.434,1.619-4.434,5.349a4.511,4.511,0,0,0,4.575,4.856,7.609,7.609,0,0,0,2.463-.493l.422-2.745.985.07v3.519A13,13,0,0,1,217.3,75.157Z" transform="translate(-164.027 -60.026)"></path><path d="M229.3,75.005l.07-.915,1.689-.211V64.026l-1.759-.211.07-.915h5.208l-.07.915-1.689.211v9.853l1.689.211.07.915Z" transform="translate(-169.477 -60.085)"></path><path d="M245.431,75.005l.07-.915,1.76-.211c-.352-.845-.774-1.83-1.2-3.1h-4.223c-.352.985-.845,2.323-1.2,3.1l1.76.211.07.915H237.9l.07-.915,1.267-.211c1.2-2.6,3.167-7.812,4.223-10.979h1.619c.774,2.534,3.1,8.586,4.223,10.979l1.267.211.07.915ZM244.023,64.66h-.07c-.352,1.126-1.267,3.871-1.689,5.138h3.449C245.079,68.038,244.375,66,244.023,64.66Z" transform="translate(-172.024 -60.085)"></path><path d="M261.019,75.187a6.684,6.684,0,0,1-3.519-.915l.07-3.167.915-.141.281,2.393a3.588,3.588,0,0,0,2.111.7c1.337,0,2.393-.774,2.393-1.9,0-2.745-5.49-2.886-5.49-6.123,0-2.111,1.9-3.238,4.082-3.238a11.139,11.139,0,0,1,2.886.352l-.141,3.1-.915.141-.211-2.323a6,6,0,0,0-1.619-.282c-1.267,0-2.252.7-2.252,1.83,0,2.393,5.63,2.674,5.63,6.123C265.171,73.709,263.412,75.187,261.019,75.187Z" transform="translate(-177.83 -60.055)"></path><path d="M288.031,75.005l.07-.915,1.83-.211c-.211-2.463-.422-7.249-.422-8.868-.845,1.83-3.026,7.179-3.941,9.994H284.02c-.985-2.745-2.815-7.6-3.941-9.994,0,1.689-.282,6.968-.422,8.868l1.76.211.07.915H276.7l.07-.915,1.619-.211c.282-2.886.633-8.516.633-9.853l-1.83-.211.07-.915h3.66c1.056,2.252,3.1,7.038,4.152,10.135.915-2.745,2.886-7.46,4.082-10.135h3.66l.07.915-1.83.211c0,2.393.281,7.179.563,9.853l1.689.211.07.915Z" transform="translate(-183.517 -60.085)"></path><path d="M309.808,68.179h-3.589v4.645h4.434l.422-2.323.915.141-.07,3.378c-.352,0-1.478-.07-2.041-.07H302.77l.07-.915,1.619-.211V62.971l-1.76-.211.07-.915h8.657l-.211,2.886-.915.141L310.09,62.9h-3.871v4.223h3.589Zm-2.674-7.038h-1.056l1.408-2.041h1.83Z" transform="translate(-191.218 -58.959)"></path><path d="M325.223,75.087c-.985,0-3.378-.141-3.378-.141H319.1l.07-.915,1.689-.211V63.967l-1.76-.211.07-.915H321.7s2.252-.141,3.237-.141c3.73,0,6.4,2.182,6.4,5.912C331.417,72.905,328.812,75.087,325.223,75.087Zm-.352-11.261c-.7,0-1.76.07-2.252.07V73.89a22.229,22.229,0,0,0,2.463.141c2.674,0,4.364-1.971,4.364-5.138C329.446,65.374,327.4,63.826,324.871,63.826Z" transform="translate(-196.075 -60.026)"></path><path d="M339.3,75.005l.07-.915,1.689-.211V64.026l-1.76-.211.07-.915h5.208l-.07.915-1.689.211v9.853l1.689.211.07.915Z" transform="translate(-202.059 -60.085)"></path><path d="M355.9,75.157c-3.378,0-6.4-2.111-6.4-5.982a6.079,6.079,0,0,1,6.334-6.475,12.078,12.078,0,0,1,4.082.7l-.282,3.449-.915.141-.211-2.6a6.591,6.591,0,0,0-2.6-.493c-2.463,0-4.434,1.619-4.434,5.349a4.511,4.511,0,0,0,4.575,4.856,7.61,7.61,0,0,0,2.463-.493l.422-2.745.985.07v3.519A12.3,12.3,0,0,1,355.9,75.157Z" transform="translate(-205.08 -60.026)"></path><path d="M373.831,75.005l.07-.915,1.76-.211c-.352-.845-.774-1.83-1.2-3.1h-4.223c-.352.985-.845,2.323-1.2,3.1l1.759.211.07.915H366.3l.07-.915,1.267-.211c1.2-2.6,3.167-7.812,4.223-10.979h1.619c.774,2.534,3.1,8.586,4.223,10.979l1.267.211.07.915ZM372.423,64.66h-.07c-.352,1.126-1.267,3.871-1.689,5.138h3.449C373.479,68.038,372.845,66,372.423,64.66Z" transform="translate(-210.056 -60.085)"></path><path d="M389.419,75.187a6.683,6.683,0,0,1-3.519-.915l.07-3.167.915-.141.282,2.393a3.588,3.588,0,0,0,2.111.7c1.337,0,2.393-.774,2.393-1.9,0-2.745-5.49-2.886-5.49-6.123,0-2.111,1.9-3.238,4.082-3.238a11.139,11.139,0,0,1,2.886.352l-.141,3.1-.915.141-.211-2.323a6,6,0,0,0-1.619-.282c-1.267,0-2.252.7-2.252,1.83,0,2.393,5.63,2.674,5.63,6.123C393.642,73.709,391.812,75.187,389.419,75.187Z" transform="translate(-215.861 -60.055)"></path></g><g transform="translate(28.3 37.011)"><path d="M104.311,93.9a13.629,13.629,0,0,0-4.223-5.7,12.462,12.462,0,0,0-6.545-2.534c-.422,0-.774-.07-1.2-.07H90.587v1.759h.352a1.323,1.323,0,0,1,1.337,1.267v5.349a5.253,5.253,0,0,1-2.886.915A6.279,6.279,0,0,1,87,94.319a2.465,2.465,0,0,1-1.337-2.182V89.463a6.913,6.913,0,0,0-3.449-5.7,6.816,6.816,0,0,0,3.449-5.7V75.387A2.551,2.551,0,0,1,87,73.205a6.279,6.279,0,0,1,2.393-.563,5.735,5.735,0,0,1,2.182.422A4.612,4.612,0,0,0,88.9,77.217a4.114,4.114,0,0,0,.07.7,4.624,4.624,0,0,0,4.575,3.871,4.566,4.566,0,0,0,4.575-4.575,4.681,4.681,0,0,0-.633-2.393.971.971,0,0,0-.211-.282,8,8,0,0,0-3.73-2.674,15.855,15.855,0,0,0-6.053-.985,15.6,15.6,0,0,0-5.349.845,13.629,13.629,0,0,0-5.7,4.223l-.633.845a10.711,10.711,0,0,1,10.416-8.446H98.117v-1.76H89.531a6.789,6.789,0,0,0,6.827-6.827h0V40.9a1.336,1.336,0,0,1,1.337-1.337h.422V37.1H92.205a4.119,4.119,0,0,0-3.167,1.478c-.141.141-44.41,58.134-44.41,58.134h2.886l14.5-18.932V93.615a1.336,1.336,0,0,1-1.337,1.337h-.422v1.76H72.076v-1.76H63.56a6.789,6.789,0,0,0,6.827-6.827V74.965a1.336,1.336,0,0,1,1.337-1.337h.422V71.164h-5l1.9-2.463,19-24.774V65.6a1.336,1.336,0,0,1-1.337,1.337h-.422A12.405,12.405,0,0,0,73.906,79.328v4.645a6.828,6.828,0,0,0,.07,1.2,12.681,12.681,0,0,0,8.234,10.768,15.594,15.594,0,0,0,5.349.845,12.009,12.009,0,0,0,5.912-1.2,6.886,6.886,0,0,0,4.575,2.041h2.674a2.551,2.551,0,0,1,2.182,1.337,6.279,6.279,0,0,1,.563,2.393,5.735,5.735,0,0,1-.422,2.182,4.612,4.612,0,0,0-4.152-2.674,4.115,4.115,0,0,0-.7.07,4.662,4.662,0,0,0-3.519,6.545c-6.4,3.8-20.9,11.05-28.363,14.78-7.32-3.66-21.255-10.627-27.871-14.5-1.689-.985-4.012-2.041-5.771-4.645a10.736,10.736,0,0,1-1.76-6.123V39.563H60.816A1.336,1.336,0,0,1,62.153,40.9V58.847a16.021,16.021,0,0,1-10.135,7.671,4.486,4.486,0,0,1-.633.141,6.792,6.792,0,0,1-3.8-.282A2.465,2.465,0,0,1,46.247,64.2V61.522a7.012,7.012,0,0,0-3.449-5.7,6.816,6.816,0,0,0,3.449-5.7V47.446a2.551,2.551,0,0,1,1.337-2.182,6.28,6.28,0,0,1,2.393-.563,5.735,5.735,0,0,1,2.182.422,4.612,4.612,0,0,0-2.674,4.152,4.115,4.115,0,0,0,.07.7A4.624,4.624,0,0,0,54.13,53.85,4.566,4.566,0,0,0,58.7,49.276a4.681,4.681,0,0,0-.633-2.393.971.971,0,0,0-.211-.282,8,8,0,0,0-3.73-2.674,15.855,15.855,0,0,0-6.053-.985,15.6,15.6,0,0,0-5.349.845,13.629,13.629,0,0,0-5.7,4.223,12.462,12.462,0,0,0-2.534,6.545,10.2,10.2,0,0,0,0,2.393,12.681,12.681,0,0,0,8.234,10.768,15.594,15.594,0,0,0,5.349.845h.211c.7,0,1.408-.07,2.111-.141A13.438,13.438,0,0,0,52.722,68a17.764,17.764,0,0,0,9.5-6.193v3.589a1.336,1.336,0,0,1-1.337,1.337h-.422v1.76h3.519l6.4-8.446V43.927l6.264,8.094L78.2,50.05,69.754,39a1.866,1.866,0,0,0-.352-.422,2.816,2.816,0,0,0-.845-.7,4.5,4.5,0,0,0-2.323-.7H28.3V96.782h0a15.9,15.9,0,0,0,.774,4.5,10.506,10.506,0,0,0,2.534,4.434,19.448,19.448,0,0,0,5.138,3.8c7.531,4.152,26.744,14.076,29.419,15.273,2.745-1.2,23.085-11.472,30.052-15.484a4.213,4.213,0,0,0,2.463.7,4.681,4.681,0,0,0,2.393-.633c.07-.07.211-.141.282-.211a8,8,0,0,0,2.674-3.73,15.855,15.855,0,0,0,.985-6.053A16.94,16.94,0,0,0,104.311,93.9Z" transform="translate(-28.3 -37.1)" fill="#a08b5e"></path><path d="M53.2,100.421l1.548-1.971L46.935,88.245l-.7-.915a1.866,1.866,0,0,0-.352-.422A4.3,4.3,0,0,0,42.712,85.5H36.8v2.463h.422A1.336,1.336,0,0,1,38.56,89.3v18.651a1.336,1.336,0,0,1-1.337,1.337H36.8v1.76h8.3l1.9-2.534a1.326,1.326,0,0,1-.141-.563V92.257Z" transform="translate(-30.818 -51.436)" fill="#a08b5e"></path><path d="M67.3,137.39v1.267h3.871l.141-1.267H70.186V131.9H69.13l-1.83.422.211,1.126,1.267-.211v4.152Z" transform="translate(-39.852 -65.18)" fill="#a08b5e"></path><path d="M74.7,137.4l.282,1.267a4.036,4.036,0,0,0,4.152-4.223c0-1.83-.845-2.745-2.182-2.745a2.088,2.088,0,0,0-2.252,2.182,1.751,1.751,0,0,0,1.83,1.9,1.328,1.328,0,0,0,1.056-.422h.07A2.733,2.733,0,0,1,74.7,137.4Zm2.252-2.674a.8.8,0,0,1-.845-.915c0-.7.352-.985.845-.985s.845.352.845.985A.832.832,0,0,1,76.952,134.726Z" transform="translate(-42.044 -65.12)" fill="#a08b5e"></path><path d="M83.1,137.46l.211,1.267c2.534,0,3.8-.985,3.8-2.252,0-1.337-1.126-1.9-2.463-1.9h-.07l.141-1.408H86.9l.141-1.267H83.593l-.422,3.871h.845c1.056,0,1.548.211,1.548.774C85.563,137.179,84.789,137.46,83.1,137.46Z" transform="translate(-44.532 -65.18)" fill="#a08b5e"></path><path d="M95.175,135.249c0-2.393-.774-3.449-2.252-3.449s-2.323,1.126-2.323,3.449c0,2.393.774,3.519,2.252,3.519C94.33,138.7,95.175,137.571,95.175,135.249Zm-3.1,0c0-1.689.282-2.323.845-2.323s.845.422.845,2.323c0,1.619-.211,2.323-.845,2.323S92.078,136.938,92.078,135.249Z" transform="translate(-46.753 -65.15)" fill="#a08b5e"></path></g></g></svg>